<svg xmlns="http://www.w3.org/2000/svg" viewBox="0 0 129.19 129.19"><defs><style>.cls-1{opacity:0.74;}.cls-2{fill:#a39790;}.cls-17,.cls-3{fill:none;}.cls-4{opacity:0.18;}.cls-5{opacity:0.66;}.cls-6{opacity:0.72;}.cls-7{opacity:0.83;}.cls-8{opacity:0.54;}.cls-9{opacity:0.82;}.cls-10{opacity:0.33;}.cls-11{opacity:0.56;}.cls-12{opacity:0.25;}.cls-13{opacity:0.58;}.cls-14{opacity:0;}.cls-15{opacity:0.13;}.cls-16{opacity:0.79;}.cls-17{stroke:#231f20;stroke-miterlimit:10;stroke-width:5px;}</style></defs><title>Asset 3</title><g id="Layer_2" data-name="Layer 2"><g id="Layer_1-2" data-name="Layer 1"><g class="cls-1"><path class="cls-2" d="M25.86,16.65v0A62.24,62.24,0,0,0,9.36,37.12h.05A62.54,62.54,0,0,1,25.86,16.65Z"/><path class="cls-2" d="M3.06,69.87c0-.06-.05-.12-.07-.19A62.07,62.07,0,0,0,64.86,127h0A62.08,62.08,0,0,1,3.06,69.87Z"/><path d="M8.23,39.63c.37-.85.77-1.69,1.18-2.51H9.36c-.41.81-.8,1.64-1.18,2.48C8.2,39.6,8.21,39.62,8.23,39.63Z"/><path d="M8.23,39.63s0,0-.05,0A61.63,61.63,0,0,0,3,60.14L3.06,60A61.69,61.69,0,0,1,8.23,39.63Z"/><path d="M2.84,64.91h0c0,1.61.08,3.2.2,4.77,0,.07,0,.13.07.19C2.93,68.23,2.84,66.58,2.84,64.91Z"/><path d="M2.8,64.67c0,.08,0,.16,0,.24h0c0-.08,0-.16,0-.25Z"/><path d="M3.06,60,3,60.14c-.11,1.5-.19,3-.19,4.53h.05C2.86,63.08,2.94,61.51,3.06,60Z"/><path d="M37.65,9.12v0a61.77,61.77,0,0,0-11.8,7.54v0A62.46,62.46,0,0,1,37.65,9.12Z"/><path d="M64.89,2.82h0A62.23,62.23,0,0,0,50.65,4.47h0A62.34,62.34,0,0,1,64.89,2.82Z"/><path d="M50.65,4.47a61.61,61.61,0,0,0-13,4.62v0a61.55,61.55,0,0,1,13-4.64Z"/><path class="cls-3" d="M124.25,46.85A62.11,62.11,0,0,1,64.89,127h0A62.13,62.13,0,0,0,124.29,46.8Z"/><path class="cls-3" d="M110.85,23.22h.06A62.23,62.23,0,0,0,93.72,9.91v0A62.24,62.24,0,0,1,110.85,23.22Z"/><path class="cls-2" d="M126.93,64.91a62.23,62.23,0,0,0-2.68-18.06,13.92,13.92,0,0,1-6.12,3.63,13.88,13.88,0,0,1,1.41,22.13,13.84,13.84,0,0,1-10.25,19.91,11,11,0,0,1-7.57,17.61A13.81,13.81,0,0,1,93.23,113H64.79a11,11,0,0,1-12.07,0H51a13.89,13.89,0,0,1-13.59-11,11,11,0,0,1-6,1.77,11.12,11.12,0,0,1-3.84-.69,11.07,11.07,0,1,1,0-20.74,11.13,11.13,0,0,1,3.84-.7,10.91,10.91,0,0,1,4.67,1,11.24,11.24,0,0,1-3.4-3.88H16a13.89,13.89,0,0,1-13-8.94,62,62,0,0,0,123.87-5Z"/><path class="cls-2" d="M90.92,23.22h19.93A62.24,62.24,0,0,0,93.72,9.94,13.82,13.82,0,0,1,90,18.8,11,11,0,0,1,90.92,23.22Z"/><path class="cls-2" d="M51.14,80.55a11,11,0,0,1-13.33,3.13,11.1,11.1,0,0,1,4,5.12A13.8,13.8,0,0,1,51,85.25h1.59A13.73,13.73,0,0,1,51.14,80.55Z"/><path class="cls-2" d="M56.38,51h1.86c.52,0,1,0,1.54.09a14,14,0,0,1,4.71-2.38,13.89,13.89,0,0,1,4.33-25.09c0-.14,0-.27,0-.41H37.65a13.88,13.88,0,0,1-11.79-6.57A62.54,62.54,0,0,0,9.41,37.12H42.49A13.89,13.89,0,0,1,56.38,51Z"/><path d="M53.55,51h2.83A13.89,13.89,0,0,0,42.49,37.12V40A11.06,11.06,0,0,1,53.55,51Z"/><path class="cls-4" d="M14.17,51c0,.05,0,.1,0,.14A14.28,14.28,0,0,1,16,51H28.6A13.89,13.89,0,0,1,42.49,37.12H9.41c-.41.82-.81,1.66-1.18,2.51A13.86,13.86,0,0,1,14.17,51Z"/><path class="cls-5" d="M14.16,51.15s0-.09,0-.14A13.86,13.86,0,0,0,8.23,39.63,61.69,61.69,0,0,0,3.06,60,13.9,13.9,0,0,1,14.16,51.15Z"/><path d="M42.49,40V37.12A13.89,13.89,0,0,0,28.6,51h2.83A11.06,11.06,0,0,1,42.49,40Z"/><path class="cls-6" d="M2.84,64.91c0,1.67.09,3.32.22,5a13.89,13.89,0,0,0,13,8.94V64.91Z"/><path d="M16,51a14.28,14.28,0,0,0-1.86.14A13.88,13.88,0,0,1,2.85,64.66c0,.09,0,.17,0,.25H16Z"/><path d="M3.06,60c-.12,1.56-.2,3.13-.21,4.71A13.88,13.88,0,0,0,14.16,51.15,13.9,13.9,0,0,0,3.06,60Z"/><path d="M59.78,51.1c-.51-.05-1-.09-1.54-.09V52.5A12.8,12.8,0,0,1,59.78,51.1Z"/><path d="M35.74,64.91H29.91A13.89,13.89,0,0,1,16,78.81H32.7a11.05,11.05,0,0,1,3-13.9Z"/><path d="M58.24,51H56.38c0,.05,0,.1,0,.14A14.31,14.31,0,0,1,58.24,51Z"/><path d="M42.49,62.08v.52a11.35,11.35,0,0,1,2,.19c0-.31.1-.62.17-.93A11.4,11.4,0,0,1,42.49,62.08Z"/><path d="M53.51,51.86a14.25,14.25,0,0,1,2.86-.71s0-.09,0-.14H53.55C53.55,51.3,53.53,51.58,53.51,51.86Z"/><path d="M28.6,51H16a13.89,13.89,0,0,1,13.89,13.9h5.83a10.57,10.57,0,0,1,1.55-1A13.9,13.9,0,0,1,28.6,51Z"/><path d="M37.29,63.9a11,11,0,0,1,5.2-1.3v-.52A11.06,11.06,0,0,1,31.43,51H28.6A13.9,13.9,0,0,0,37.29,63.9Z"/><path d="M29.91,64.91H16v13.9A13.89,13.89,0,0,0,29.91,64.91Z"/><path d="M16,51v13.9H29.91A13.89,13.89,0,0,0,16,51Z"/><path d="M47.69,63.9a11,11,0,0,1,5.58,7.33,14.29,14.29,0,0,1,2.59-3A13.83,13.83,0,0,1,58.24,52.5V51a14.31,14.31,0,0,0-1.87.14A13.89,13.89,0,0,1,47.69,63.9Z"/><path d="M56.37,51.15a14.25,14.25,0,0,0-2.86.71,11.07,11.07,0,0,1-8.82,10c-.07.31-.12.62-.17.93a11.05,11.05,0,0,1,3.17,1.11A13.89,13.89,0,0,0,56.37,51.15Z"/><path d="M64.91,85.25V77.1a13.78,13.78,0,0,1-6.67,1.71h-6a11.34,11.34,0,0,1-1.14,1.74,13.73,13.73,0,0,0,1.47,4.7Z"/><path d="M58.24,71.66v7.15a13.78,13.78,0,0,0,6.67-1.71V75.55A13.79,13.79,0,0,1,58.24,71.66Z"/><path d="M52.28,78.81h6a14,14,0,0,1-5.46-1.11A11.06,11.06,0,0,1,52.28,78.81Z"/><path d="M55.86,68.28a14.29,14.29,0,0,0-2.59,3,10.91,10.91,0,0,1,.28,2.43,11.08,11.08,0,0,1-.77,4,14,14,0,0,0,5.46,1.11V71.66A13.4,13.4,0,0,1,55.86,68.28Z"/><path class="cls-7" d="M107.12,76V90.34a10.67,10.67,0,0,1,2.17,2.18,13.84,13.84,0,0,0,10.25-19.91A13.84,13.84,0,0,1,110.49,76Z"/><path class="cls-6" d="M78.8,78.81a13.85,13.85,0,0,1-1.58,6.44h16a14.74,14.74,0,0,1,1.64.1A13.89,13.89,0,0,1,93.52,76h-15A13.86,13.86,0,0,1,78.8,78.81Z"/><path d="M78.51,76H68.28c-.52,0-1,0-1.54-.09a14.13,14.13,0,0,1-1.83,1.21v8.15H77.22A13.93,13.93,0,0,0,78.51,76Z"/><path d="M64.91,75.55V77.1a14.13,14.13,0,0,0,1.83-1.21A13.74,13.74,0,0,1,64.91,75.55Z"/><path class="cls-6" d="M93.23,78.81a13.85,13.85,0,0,0,1.64,6.54,13.74,13.74,0,0,1,6.85,2.81,10.91,10.91,0,0,1,5.4,2.18V76H93.52A13.86,13.86,0,0,0,93.23,78.81Z"/><path class="cls-8" d="M68.28,55.33V50.46a13.76,13.76,0,0,1-3.79-1.74,14,14,0,0,0-4.71,2.38A13.88,13.88,0,0,1,68.28,55.33Z"/><path d="M58.24,52.5V66.62a13.78,13.78,0,0,1,6.67-1.71h3.37V55.33a13.88,13.88,0,0,0-8.5-4.23A12.8,12.8,0,0,0,58.24,52.5Z"/><path d="M58.24,52.5a13.83,13.83,0,0,0-2.38,15.78,13.69,13.69,0,0,1,2.38-1.66Z"/><path d="M64.91,75.55V64.91a13.78,13.78,0,0,0-6.67,1.71v5A13.79,13.79,0,0,0,64.91,75.55Z"/><path d="M58.24,66.62a13.69,13.69,0,0,0-2.38,1.66,13.4,13.4,0,0,0,2.38,3.38Z"/><path d="M68.28,64.91H64.91a13.83,13.83,0,0,1,3.37.43Z"/><path d="M66.74,75.89c.5,0,1,.09,1.54.09V74.49A14.52,14.52,0,0,1,66.74,75.89Z"/><path d="M66.74,75.89a14.52,14.52,0,0,0,1.54-1.4V65.34a13.83,13.83,0,0,0-3.37-.43V75.55A13.74,13.74,0,0,0,66.74,75.89Z"/><path class="cls-9" d="M110.49,51V65.34a13.88,13.88,0,0,1,9.05,7.27,13.88,13.88,0,0,0-1.41-22.13,13.93,13.93,0,0,1-3.79.53Z"/><path class="cls-9" d="M110.49,65.34V76a13.84,13.84,0,0,0,9.05-3.37A13.88,13.88,0,0,0,110.49,65.34Z"/><path class="cls-10" d="M82.17,62.08a13.86,13.86,0,0,1-.29,2.83h15A13.89,13.89,0,0,1,102.11,51H76.66A13.88,13.88,0,0,1,82.17,62.08Z"/><path class="cls-11" d="M107.12,76h3.37a14,14,0,0,1-3.37-.43Z"/><path class="cls-6" d="M77.33,72.61A13.34,13.34,0,0,1,78.51,76h15a14,14,0,0,1,4.55-7.7,14.17,14.17,0,0,1-1.18-3.37h-15A13.84,13.84,0,0,1,77.33,72.61Z"/><path d="M78.51,76a13.34,13.34,0,0,0-1.18-3.37,13.84,13.84,0,0,1-9,3.37Z"/><path class="cls-9" d="M98.07,68.28A14,14,0,0,0,93.52,76h13.6v-.43A13.9,13.9,0,0,1,98.07,68.28Z"/><path d="M81.88,64.91A13.89,13.89,0,0,0,76.66,51H72.13a13.94,13.94,0,0,1-3.85-.55v4.87a13.82,13.82,0,0,1,3.85,9.58Z"/><path d="M68.28,55.33v9.58h3.85A13.82,13.82,0,0,0,68.28,55.33Z"/><path d="M72,66.86a13.93,13.93,0,0,1,5.35,5.75,13.84,13.84,0,0,0,4.55-7.7H72.13A15.7,15.7,0,0,1,72,66.86Z"/><path d="M72,66.86a15.7,15.7,0,0,0,.15-2H68.28v.43A13.67,13.67,0,0,1,72,66.86Z"/><path d="M72,66.86a13.84,13.84,0,0,1-3.7,7.63V76a13.84,13.84,0,0,0,9-3.37A13.93,13.93,0,0,0,72,66.86Z"/><path d="M68.28,65.34v9.15A13.84,13.84,0,0,0,72,66.86,13.67,13.67,0,0,0,68.28,65.34Z"/><path class="cls-9" d="M96.6,62.08a13.86,13.86,0,0,0,.29,2.83h10.23a13.83,13.83,0,0,1,3.37.43V51h-8.38A13.88,13.88,0,0,0,96.6,62.08Z"/><path class="cls-9" d="M107.12,75.55a14,14,0,0,0,3.37.43V65.34a13.83,13.83,0,0,0-3.37-.43Z"/><path class="cls-9" d="M107.12,64.91H96.89a14.17,14.17,0,0,0,1.18,3.37A13.86,13.86,0,0,1,107.12,64.91Z"/><path class="cls-9" d="M107.12,75.55V64.91a13.86,13.86,0,0,0-9.05,3.37A13.9,13.9,0,0,0,107.12,75.55Z"/><path class="cls-12" d="M72.13,48.18V31.12a11,11,0,0,1-3.31-7.49,13.89,13.89,0,0,0-4.33,25.09,13.94,13.94,0,0,1,3.79-.54Z"/><path class="cls-8" d="M68.28,48.18a13.94,13.94,0,0,0-3.79.54,13.76,13.76,0,0,0,3.79,1.74Z"/><path class="cls-8" d="M72.13,48.18H68.28a14,14,0,0,1,3.85.55Z"/><path class="cls-8" d="M72.13,48.73a14,14,0,0,0-3.85-.55v2.28a13.94,13.94,0,0,0,3.85.55Z"/><path d="M114.34,27.43a61.85,61.85,0,0,1,9.91,19.42l0-.05a62,62,0,0,0-10-19.44Z"/><path class="cls-12" d="M114.34,48.73a14.22,14.22,0,0,1,3.79,1.75,13.92,13.92,0,0,0,6.12-3.63,61.85,61.85,0,0,0-9.91-19.42Z"/><path class="cls-8" d="M114.34,51a13.93,13.93,0,0,0,3.79-.53,14.22,14.22,0,0,0-3.79-1.75Z"/><path d="M111.18,23.59h0l-.31-.36h-.06Z"/><path class="cls-12" d="M85.34,32.83a13.86,13.86,0,0,1-4.83,15.35H106a13.88,13.88,0,0,1,5.22-24.59l-.33-.37H90.92A11.06,11.06,0,0,1,85.34,32.83Z"/><path class="cls-8" d="M110.49,51h3.85a14,14,0,0,1-3.85-.55Z"/><path class="cls-8" d="M76.66,51h25.45a13.93,13.93,0,0,1,4.59-2.29c-.25-.17-.5-.35-.74-.54H80.51a14,14,0,0,1-4.59,2.3Z"/><path d="M76.66,51l-.74-.53a14,14,0,0,1-3.79.53Z"/><path class="cls-8" d="M106.7,48.72A13.93,13.93,0,0,0,102.11,51h8.38v-.55A13.89,13.89,0,0,1,106.7,48.72Z"/><path class="cls-12" d="M72.13,31.12V48.18h8.38a13.86,13.86,0,0,0,4.83-15.35,11.05,11.05,0,0,1-13.21-1.71Z"/><path class="cls-8" d="M72.13,48.73a14.22,14.22,0,0,1,3.79,1.75,14,14,0,0,0,4.59-2.3H72.13Z"/><path class="cls-8" d="M75.92,50.48a14.22,14.22,0,0,0-3.79-1.75V51A14,14,0,0,0,75.92,50.48Z"/><path d="M114.34,27.36q-1.49-2-3.12-3.78h0c1.1,1.24,2.16,2.52,3.16,3.84Z"/><path class="cls-12" d="M100.45,37.12A13.87,13.87,0,0,0,106,48.18h4.53a13.94,13.94,0,0,1,3.85.55V27.43c-1-1.32-2.06-2.6-3.16-3.84A13.9,13.9,0,0,0,100.45,37.12Z"/><path class="cls-8" d="M110.49,50.46a14,14,0,0,0,3.85.55V48.73a13.94,13.94,0,0,0-3.85-.55Z"/><path class="cls-8" d="M110.49,48.18H106c.24.19.49.37.74.54A14,14,0,0,1,110.49,48.18Z"/><path class="cls-8" d="M110.49,50.46V48.18a14,14,0,0,0-3.79.54A13.89,13.89,0,0,0,110.49,50.46Z"/><path class="cls-12" d="M37.65,23.22V9.12a62.46,62.46,0,0,0-11.79,7.53A13.88,13.88,0,0,0,37.65,23.22Z"/><path d="M79.86,4.65A61.28,61.28,0,0,1,93.72,9.94v0A61.7,61.7,0,0,0,79.86,4.64Z"/><path class="cls-12" d="M90,18.8a13.82,13.82,0,0,0,3.72-8.86A61.28,61.28,0,0,0,79.86,4.65v7.5A11.07,11.07,0,0,1,90,18.8Z"/><path d="M67.56,2.88c-.88,0-1.76-.06-2.65-.06h0c.89,0,1.78,0,2.67.06Z"/><path class="cls-12" d="M51.54,9.32a13.89,13.89,0,0,1-13.89,13.9H68.8a11,11,0,0,1,.92-4.42A13.85,13.85,0,0,1,67.56,2.88c-.89,0-1.78-.06-2.67-.06A62.34,62.34,0,0,0,50.66,4.48,13.9,13.9,0,0,1,51.54,9.32Z"/><path class="cls-12" d="M51.54,9.32a13.9,13.9,0,0,0-.88-4.84,61.55,61.55,0,0,0-13,4.64v14.1A13.89,13.89,0,0,0,51.54,9.32Z"/><path d="M79.86,4.65h0a62.25,62.25,0,0,0-12.3-1.76h0A62.25,62.25,0,0,1,79.86,4.65Z"/><path class="cls-12" d="M66,9.32a13.83,13.83,0,0,0,3.75,9.48,11.07,11.07,0,0,1,10.14-6.65V4.65a62.25,62.25,0,0,0-12.3-1.77A13.85,13.85,0,0,0,66,9.32Z"/><path class="cls-6" d="M47.69,103.77A11,11,0,0,1,51,95.87V85.25a13.8,13.8,0,0,0-9.25,3.55A11,11,0,0,1,37.43,102,13.89,13.89,0,0,0,51,113v-1.36A11,11,0,0,1,47.69,103.77Z"/><path class="cls-1" d="M93.23,107.52V113a13.81,13.81,0,0,0,8.49-2.91,10.69,10.69,0,0,1-1.27.08A11,11,0,0,1,93.23,107.52Z"/><path class="cls-13" d="M93.23,90.77a10.9,10.9,0,0,1,4-2.21,14.07,14.07,0,0,1-2.36-3.21,14.74,14.74,0,0,0-1.64-.1Z"/><path class="cls-11" d="M100.45,88.08a10.69,10.69,0,0,1,1.27.08,13.74,13.74,0,0,0-6.85-2.81,14.07,14.07,0,0,0,2.36,3.21A11.05,11.05,0,0,1,100.45,88.08Z"/><path d="M51,113h1.7l-.15-.09A13.17,13.17,0,0,1,51,113Z"/><path class="cls-1" d="M79.34,99.14a13.78,13.78,0,0,1,1.59-6.43h-16a12.51,12.51,0,0,1-1.63-.11c.23.45.44.91.63,1.39A11.05,11.05,0,0,1,64.79,113H93.23A13.89,13.89,0,0,1,79.34,99.14Z"/><path d="M52.61,85.25H51a14.74,14.74,0,0,1,1.64.1S52.63,85.28,52.61,85.25Z"/><path class="cls-6" d="M52.61,85.25s0,.07,0,.1A13.91,13.91,0,0,1,63.28,92.6a12.51,12.51,0,0,0,1.63.11V85.25Z"/><path class="cls-13" d="M93.23,85.25h-16a13.89,13.89,0,0,1-12.31,7.46h16A13.86,13.86,0,0,1,93.23,85.25Z"/><path class="cls-1" d="M77.22,85.25H64.91v7.46A13.89,13.89,0,0,0,77.22,85.25Z"/><path d="M51,111.68V113a13.17,13.17,0,0,0,1.55-.09A11.15,11.15,0,0,1,51,111.68Z"/><path class="cls-6" d="M52.66,85.35a14.74,14.74,0,0,0-1.64-.1V95.87a11,11,0,0,1,7.73-3.16A10.92,10.92,0,0,1,63.91,94c-.19-.48-.4-.94-.63-1.39A13.87,13.87,0,0,1,52.66,85.35Z"/><path d="M52.66,85.35A13.87,13.87,0,0,0,63.28,92.6,13.91,13.91,0,0,0,52.66,85.35Z"/><path class="cls-1" d="M89.39,99.14a11,11,0,0,1,2.07-6.43H80.93A13.88,13.88,0,0,0,93.23,113v-5.52A11,11,0,0,1,89.39,99.14Z"/><path class="cls-13" d="M93.23,90.77V85.25a13.86,13.86,0,0,0-12.3,7.46H91.46A10.89,10.89,0,0,1,93.23,90.77Z"/><path class="cls-2" d="M20.37,92.71a11.06,11.06,0,0,1,7.22-10.37,11.06,11.06,0,1,0,0,20.74A11.07,11.07,0,0,1,20.37,92.71Z"/><path class="cls-12" d="M20.37,92.71a11.06,11.06,0,0,1,7.22-10.37,11.06,11.06,0,1,0,0,20.74A11.07,11.07,0,0,1,20.37,92.71Z"/><path class="cls-2" d="M42.49,84.73a11,11,0,0,0,8.65-4.18A14.25,14.25,0,0,1,51,78.81H32.7a11.24,11.24,0,0,0,3.4,3.88,10.72,10.72,0,0,1,1.71,1A11,11,0,0,0,42.49,84.73Z"/><path class="cls-12" d="M42.49,84.73a11,11,0,0,0,8.65-4.18A14.25,14.25,0,0,1,51,78.81H32.7a11.24,11.24,0,0,0,3.4,3.88,10.72,10.72,0,0,1,1.71,1A11,11,0,0,0,42.49,84.73Z"/><path d="M51.17,76.86a13.88,13.88,0,0,1-6.83-12s0-.09,0-.14a14.28,14.28,0,0,1-1.86.14H35.74a11.05,11.05,0,0,0-3,13.9H51A14,14,0,0,1,51.17,76.86Z"/><path class="cls-12" d="M51.17,76.86a13.88,13.88,0,0,1-6.83-12s0-.09,0-.14a14.28,14.28,0,0,1-1.86.14H35.74a11.05,11.05,0,0,0-3,13.9H51A14,14,0,0,1,51.17,76.86Z"/><path d="M42.49,62.6v2.31a14.28,14.28,0,0,0,1.86-.14,14.42,14.42,0,0,1,.17-2A11.35,11.35,0,0,0,42.49,62.6Z"/><path class="cls-12" d="M42.49,62.6v2.31a14.28,14.28,0,0,0,1.86-.14,14.42,14.42,0,0,1,.17-2A11.35,11.35,0,0,0,42.49,62.6Z"/><path d="M35.74,64.91h6.75a13.84,13.84,0,0,1-5.2-1A10.57,10.57,0,0,0,35.74,64.91Z"/><path class="cls-12" d="M35.74,64.91h6.75a13.84,13.84,0,0,1-5.2-1A10.57,10.57,0,0,0,35.74,64.91Z"/><path d="M37.29,63.9a13.84,13.84,0,0,0,5.2,1V62.6A11,11,0,0,0,37.29,63.9Z"/><path class="cls-12" d="M37.29,63.9a13.84,13.84,0,0,0,5.2,1V62.6A11,11,0,0,0,37.29,63.9Z"/><path d="M47.69,63.9a13.91,13.91,0,0,1-3.34.87s0,.09,0,.14a13.88,13.88,0,0,0,6.83,12,14,14,0,0,1,2.1-5.63A11,11,0,0,0,47.69,63.9Z"/><path class="cls-12" d="M47.69,63.9a13.91,13.91,0,0,1-3.34.87s0,.09,0,.14a13.88,13.88,0,0,0,6.83,12,14,14,0,0,1,2.1-5.63A11,11,0,0,0,47.69,63.9Z"/><path d="M44.52,62.79a14.42,14.42,0,0,0-.17,2,13.91,13.91,0,0,0,3.34-.87A11.05,11.05,0,0,0,44.52,62.79Z"/><path class="cls-12" d="M44.52,62.79a14.42,14.42,0,0,0-.17,2,13.91,13.91,0,0,0,3.34-.87A11.05,11.05,0,0,0,44.52,62.79Z"/><path d="M51,78.81a14.25,14.25,0,0,0,.12,1.74,11.34,11.34,0,0,0,1.14-1.74Z"/><path class="cls-12" d="M51,78.81a14.25,14.25,0,0,0,.12,1.74,11.34,11.34,0,0,0,1.14-1.74Z"/><path d="M52.78,77.7a13.66,13.66,0,0,1-1.61-.84,14,14,0,0,0-.15,2h1.26A11.06,11.06,0,0,0,52.78,77.7Z"/><path class="cls-12" d="M52.78,77.7a13.66,13.66,0,0,1-1.61-.84,14,14,0,0,0-.15,2h1.26A11.06,11.06,0,0,0,52.78,77.7Z"/><path d="M53.55,73.66a10.91,10.91,0,0,0-.28-2.43,14,14,0,0,0-2.1,5.63,13.66,13.66,0,0,0,1.61.84A11.08,11.08,0,0,0,53.55,73.66Z"/><path class="cls-12" d="M53.55,73.66a10.91,10.91,0,0,0-.28-2.43,14,14,0,0,0-2.1,5.63,13.66,13.66,0,0,0,1.61.84A11.08,11.08,0,0,0,53.55,73.66Z"/><path d="M53.55,51A11.06,11.06,0,0,0,42.49,40V51Z"/><path class="cls-12" d="M53.55,51A11.06,11.06,0,0,0,42.49,40V51Z"/><path d="M42.49,40A11.06,11.06,0,0,0,31.43,51H42.49Z"/><path class="cls-14" d="M42.49,40A11.06,11.06,0,0,0,31.43,51H42.49Z"/><path d="M53.51,51.86c0-.28,0-.56,0-.85H42.49V62.08a11.4,11.4,0,0,0,2.2-.22A13.89,13.89,0,0,1,53.51,51.86Z"/><path class="cls-12" d="M53.51,51.86c0-.28,0-.56,0-.85H42.49V62.08a11.4,11.4,0,0,0,2.2-.22A13.89,13.89,0,0,1,53.51,51.86Z"/><path d="M31.43,51A11.06,11.06,0,0,0,42.49,62.08V51Z"/><path class="cls-12" d="M31.43,51A11.06,11.06,0,0,0,42.49,62.08V51Z"/><path d="M44.69,61.86a11.07,11.07,0,0,0,8.82-10A13.89,13.89,0,0,0,44.69,61.86Z"/><path class="cls-12" d="M44.69,61.86a11.07,11.07,0,0,0,8.82-10A13.89,13.89,0,0,0,44.69,61.86Z"/><path class="cls-2" d="M79.86,23.22H90.92A11,11,0,0,0,90,18.8,13.85,13.85,0,0,1,79.86,23.22Z"/><path class="cls-12" d="M79.86,23.22H90.92A11,11,0,0,0,90,18.8,13.85,13.85,0,0,1,79.86,23.22Z"/><path class="cls-2" d="M68.8,23.22c0,.14,0,.27,0,.41a13.89,13.89,0,0,1,3.31-.41Z"/><path class="cls-12" d="M68.8,23.22c0,.14,0,.27,0,.41a13.89,13.89,0,0,1,3.31-.41Z"/><path d="M72.13,31.12v-7.9a13.89,13.89,0,0,0-3.31.41A11,11,0,0,0,72.13,31.12Z"/><path class="cls-12" d="M72.13,31.12v-7.9a13.89,13.89,0,0,0-3.31.41A11,11,0,0,0,72.13,31.12Z"/><path d="M72.13,23.22a13.89,13.89,0,0,1,13.21,9.61,11.06,11.06,0,0,0,5.58-9.61H72.13Z"/><path class="cls-12" d="M72.13,23.22a13.89,13.89,0,0,1,13.21,9.61,11.06,11.06,0,0,0,5.58-9.61H72.13Z"/><path d="M72.13,23.22v7.9a11.05,11.05,0,0,0,13.21,1.71A13.89,13.89,0,0,0,72.13,23.22Z"/><path class="cls-12" d="M72.13,23.22v7.9a11.05,11.05,0,0,0,13.21,1.71A13.89,13.89,0,0,0,72.13,23.22Z"/><path d="M90,18.8a11.07,11.07,0,0,0-10.14-6.65V23.22A13.85,13.85,0,0,0,90,18.8Z"/><path class="cls-12" d="M90,18.8a11.07,11.07,0,0,0-10.14-6.65V23.22A13.85,13.85,0,0,0,90,18.8Z"/><path d="M79.86,23.22A13.87,13.87,0,0,1,69.72,18.8a11,11,0,0,0-.92,4.42H79.86Z"/><path class="cls-12" d="M79.86,23.22A13.87,13.87,0,0,1,69.72,18.8a11,11,0,0,0-.92,4.42H79.86Z"/><path d="M79.86,23.22V12.15A11.07,11.07,0,0,0,69.72,18.8,13.87,13.87,0,0,0,79.86,23.22Z"/><path class="cls-14" d="M79.86,23.22V12.15A11.07,11.07,0,0,0,69.72,18.8,13.87,13.87,0,0,0,79.86,23.22Z"/><path class="cls-2" d="M105.54,92.71a13.88,13.88,0,0,1-3.82,17.42,11,11,0,0,0,7.57-17.61,13.9,13.9,0,0,1-2.17.19Z"/><path class="cls-12" d="M105.54,92.71a13.88,13.88,0,0,1-3.82,17.42,11,11,0,0,0,7.57-17.61,13.9,13.9,0,0,1-2.17.19Z"/><path d="M107.12,90.34v2.37a13.9,13.9,0,0,0,2.17-.19A10.67,10.67,0,0,0,107.12,90.34Z"/><path class="cls-11" d="M107.12,90.34v2.37a13.9,13.9,0,0,0,2.17-.19A10.67,10.67,0,0,0,107.12,90.34Z"/><path d="M105.54,92.71h1.58a12.63,12.63,0,0,1-1.63-.11Z"/><path class="cls-12" d="M105.54,92.71h1.58a12.63,12.63,0,0,1-1.63-.11Z"/><path d="M105.49,92.6a12.63,12.63,0,0,0,1.63.11V90.34a10.91,10.91,0,0,0-5.4-2.18A13.8,13.8,0,0,1,105.49,92.6Z"/><path class="cls-15" d="M105.49,92.6a12.63,12.63,0,0,0,1.63.11V90.34a10.91,10.91,0,0,0-5.4-2.18A13.8,13.8,0,0,1,105.49,92.6Z"/><path d="M107.12,99.14a13.78,13.78,0,0,0-1.58-6.43H93.23v14.81a11,11,0,0,0,7.22,2.69,10.69,10.69,0,0,0,1.27-.08A13.86,13.86,0,0,0,107.12,99.14Z"/><path class="cls-16" d="M107.12,99.14a13.78,13.78,0,0,0-1.58-6.43H93.23v14.81a11,11,0,0,0,7.22,2.69,10.69,10.69,0,0,0,1.27-.08A13.86,13.86,0,0,0,107.12,99.14Z"/><path d="M97.23,88.56a10.9,10.9,0,0,0-4,2.21v1.94h12.31l-.05-.11A13.86,13.86,0,0,1,97.23,88.56Z"/><path class="cls-15" d="M97.23,88.56a10.9,10.9,0,0,0-4,2.21v1.94h12.31l-.05-.11A13.86,13.86,0,0,1,97.23,88.56Z"/><path d="M97.23,88.56a13.86,13.86,0,0,0,8.26,4,13.8,13.8,0,0,0-3.77-4.44,10.69,10.69,0,0,0-1.27-.08A11.05,11.05,0,0,0,97.23,88.56Z"/><path class="cls-15" d="M97.23,88.56a13.86,13.86,0,0,0,8.26,4,13.8,13.8,0,0,0-3.77-4.44,10.69,10.69,0,0,0-1.27-.08A11.05,11.05,0,0,0,97.23,88.56Z"/><path d="M89.39,99.14a11,11,0,0,0,3.84,8.38V92.71H91.46A11,11,0,0,0,89.39,99.14Z"/><path class="cls-11" d="M89.39,99.14a11,11,0,0,0,3.84,8.38V92.71H91.46A11,11,0,0,0,89.39,99.14Z"/><path d="M91.46,92.71h1.77V90.77A10.89,10.89,0,0,0,91.46,92.71Z"/><path class="cls-11" d="M91.46,92.71h1.77V90.77A10.89,10.89,0,0,0,91.46,92.71Z"/><path class="cls-2" d="M58.75,114.84a11,11,0,0,0,6-1.8H52.72A11,11,0,0,0,58.75,114.84Z"/><path class="cls-12" d="M58.75,114.84a11,11,0,0,0,6-1.8H52.72A11,11,0,0,0,58.75,114.84Z"/><path d="M47.69,103.77A11,11,0,0,0,51,111.68V95.87A11,11,0,0,0,47.69,103.77Z"/><path class="cls-6" d="M47.69,103.77A11,11,0,0,0,51,111.68V95.87A11,11,0,0,0,47.69,103.77Z"/><path d="M69.82,103.77A11.06,11.06,0,0,0,63.91,94a13.87,13.87,0,0,1-11.34,19l.15.09H64.79A11.05,11.05,0,0,0,69.82,103.77Z"/><path class="cls-6" d="M69.82,103.77A11.06,11.06,0,0,0,63.91,94a13.87,13.87,0,0,1-11.34,19l.15.09H64.79A11.05,11.05,0,0,0,69.82,103.77Z"/><path d="M51,95.87v15.81A11.15,11.15,0,0,0,52.57,113,13.87,13.87,0,0,0,63.91,94a10.92,10.92,0,0,0-5.16-1.28A11,11,0,0,0,51,95.87Z"/><path class="cls-6" d="M51,95.87v15.81A11.15,11.15,0,0,0,52.57,113,13.87,13.87,0,0,0,63.91,94a10.92,10.92,0,0,0-5.16-1.28A11,11,0,0,0,51,95.87Z"/><path class="cls-2" d="M41.77,88.8a11.1,11.1,0,0,0-4-5.12,11.18,11.18,0,0,1-1.71-1,10.91,10.91,0,0,0-4.67-1,11.13,11.13,0,0,0-3.84.7,11.05,11.05,0,0,1,0,20.74,11.12,11.12,0,0,0,3.84.69,11,11,0,0,0,6-1.77,13.47,13.47,0,0,1-.3-2.86A13.84,13.84,0,0,1,41.77,88.8Z"/><path class="cls-12" d="M41.77,88.8a11.1,11.1,0,0,0-4-5.12,11.18,11.18,0,0,1-1.71-1,10.91,10.91,0,0,0-4.67-1,11.13,11.13,0,0,0-3.84.7,11.05,11.05,0,0,1,0,20.74,11.12,11.12,0,0,0,3.84.69,11,11,0,0,0,6-1.77,13.47,13.47,0,0,1-.3-2.86A13.84,13.84,0,0,1,41.77,88.8Z"/><path d="M42.49,92.71a11,11,0,0,0-.72-3.91,13.84,13.84,0,0,0-4.64,10.34,13.47,13.47,0,0,0,.3,2.86A11.05,11.05,0,0,0,42.49,92.71Z"/><path class="cls-6" d="M42.49,92.71a11,11,0,0,0-.72-3.91,13.84,13.84,0,0,0-4.64,10.34,13.47,13.47,0,0,0,.3,2.86A11.05,11.05,0,0,0,42.49,92.71Z"/><ellipse class="cls-2" cx="27.59" cy="92.71" rx="7.23" ry="10.37"/><ellipse class="cls-12" cx="27.59" cy="92.71" rx="7.23" ry="10.37"/><ellipse class="cls-12" cx="27.59" cy="92.71" rx="7.23" ry="10.37"/><path class="cls-2" d="M36.1,82.69a11.18,11.18,0,0,0,1.71,1A10.72,10.72,0,0,0,36.1,82.69Z"/><path class="cls-12" d="M36.1,82.69a11.18,11.18,0,0,0,1.71,1A10.72,10.72,0,0,0,36.1,82.69Z"/><path class="cls-12" d="M36.1,82.69a11.18,11.18,0,0,0,1.71,1A10.72,10.72,0,0,0,36.1,82.69Z"/></g><circle class="cls-17" cx="64.6" cy="64.6" r="62.1"/></g></g></svg>